<?xml version="1.0" standalone="no"?>
<!DOCTYPE svg PUBLIC "-//W3C//DTD SVG 20010904//EN"
 "http://www.w3.org/TR/2001/REC-SVG-20010904/DTD/svg10.dtd">
<svg version="1.0" xmlns="http://www.w3.org/2000/svg"
 width="180.000000pt" height="180.000000pt" viewBox="0 0 180.000000 180.000000"
 preserveAspectRatio="xMidYMid meet">
<metadata>
Created by potrace 1.11, written by Peter Selinger 2001-2013
</metadata>
<g transform="translate(0.000000,180.000000) scale(0.100000,-0.100000)"
fill="#000000" stroke="none">
<path d="M773 1306 c-92 -30 -159 -91 -199 -183 -13 -30 -24 -56 -24 -59 0 -3
19 10 43 30 54 44 85 56 148 56 72 0 104 -17 201 -107 100 -92 151 -121 246
-135 179 -28 326 47 393 200 26 59 24 61 -13 24 -62 -59 -158 -79 -233 -48
-19 8 -73 52 -121 97 -117 110 -167 132 -299 136 -64 2 -115 -2 -142 -11z"/>
<path d="M432 885 c-67 -19 -84 -28 -134 -73 -36 -33 -74 -93 -99 -159 -9 -25
-8 -25 28 7 78 69 161 86 240 51 23 -11 79 -54 124 -97 48 -45 106 -88 138
-103 50 -23 68 -26 166 -26 105 0 114 2 177 33 70 34 108 73 147 149 29 57 26
72 -6 41 -47 -43 -93 -62 -153 -62 -72 1 -99 16 -210 118 -67 63 -107 91 -149
107 -73 28 -197 34 -269 14z"/>
</g>
</svg>
